<svg xmlns="http://www.w3.org/2000/svg" width="1600" height="1000" viewBox="0 0 1600 1000">
  <defs>
    <radialGradient id="glow" cx="50%" cy="38%" r="65%">
      <stop offset="0%" stop-color="#ff9f43" stop-opacity="0.32"/>
      <stop offset="42%" stop-color="#ff9f43" stop-opacity="0.08"/>
      <stop offset="100%" stop-color="#07090f" stop-opacity="0"/>
    </radialGradient>
    <linearGradient id="panel" x1="0" y1="0" x2="1" y2="1">
      <stop offset="0%" stop-color="#17202b" stop-opacity="0.94"/>
      <stop offset="100%" stop-color="#0b0f17" stop-opacity="0.98"/>
    </linearGradient>
    <filter id="soft">
      <feGaussianBlur stdDeviation="18"/>
    </filter>
  </defs>
  <rect width="1600" height="1000" fill="#07090f"/>
  <rect width="1600" height="1000" fill="url(#glow)"/>
  <path d="M0 780 C320 640 550 880 860 750 C1180 610 1340 840 1600 700" fill="none" stroke="#ff9f43" stroke-opacity="0.28" stroke-width="2"/>
  <text x="92" y="82" fill="#ff9f43" font-size="22" font-weight="700" font-family="Arial, Helvetica, sans-serif">Agentix Workflow</text>
  <text x="92" y="148" fill="#f8fbff" font-size="54" font-weight="800" font-family="Arial, Helvetica, sans-serif">Data Cleanup &amp; Standardization</text>
<text x="92" y="211.72" fill="#f8fbff" font-size="54" font-weight="800" font-family="Arial, Helvetica, sans-serif">Tool Sample Output</text>
  <text x="96" y="248" fill="#aab4c4" font-size="24" font-weight="500" font-family="Arial, Helvetica, sans-serif">A decision-ready workflow visual for this page</text>
<text x="96" y="276.32" fill="#aab4c4" font-size="24" font-weight="500" font-family="Arial, Helvetica, sans-serif">section.</text>
  <g>
    <rect x="700" y="210" width="780" height="520" rx="22" fill="url(#panel)" stroke="#ff9f43" stroke-opacity="0.38"/>
    <rect x="722" y="232" width="736" height="9" rx="5" fill="#ff9f43" opacity="0.72"/>
    <text x="728" y="272" fill="#e8edf7" font-size="22" font-weight="700" font-family="Arial, Helvetica, sans-serif">Workflow</text>
  </g><g>
    <circle cx="780" cy="416" r="38" fill="#ff9f43" opacity="0.08"/>
    <circle cx="780" cy="416" r="28" fill="#101722" stroke="#ff9f43" stroke-width="3"/>
    <text x="780" y="472" text-anchor="middle" fill="#dce4ef" font-size="18" font-weight="700" font-family="Arial, Helvetica, sans-serif">Input</text>
  </g><g>
    <circle cx="898" cy="524" r="38" fill="#ff9f43" opacity="0.08"/>
    <circle cx="898" cy="524" r="28" fill="#101722" stroke="#ff9f43" stroke-width="3"/>
    <text x="898" y="580" text-anchor="middle" fill="#dce4ef" font-size="18" font-weight="700" font-family="Arial, Helvetica, sans-serif">Analyze</text>
  </g><path d="M812 416 C852 470 856 470 866 524" fill="none" stroke="#ff9f43" stroke-width="3" stroke-opacity="0.55"/><g>
    <circle cx="1016" cy="416" r="38" fill="#ff9f43" opacity="0.08"/>
    <circle cx="1016" cy="416" r="28" fill="#101722" stroke="#ff9f43" stroke-width="3"/>
    <text x="1016" y="472" text-anchor="middle" fill="#dce4ef" font-size="18" font-weight="700" font-family="Arial, Helvetica, sans-serif">Generate</text>
  </g><path d="M930 524 C970 470 974 470 984 416" fill="none" stroke="#ff9f43" stroke-width="3" stroke-opacity="0.55"/><g>
    <circle cx="1134" cy="524" r="38" fill="#ff9f43" opacity="0.08"/>
    <circle cx="1134" cy="524" r="28" fill="#101722" stroke="#ff9f43" stroke-width="3"/>
    <text x="1134" y="580" text-anchor="middle" fill="#dce4ef" font-size="18" font-weight="700" font-family="Arial, Helvetica, sans-serif">Review</text>
  </g><path d="M1048 416 C1088 470 1092 470 1102 524" fill="none" stroke="#ff9f43" stroke-width="3" stroke-opacity="0.55"/><g>
    <circle cx="1252" cy="416" r="38" fill="#ff9f43" opacity="0.08"/>
    <circle cx="1252" cy="416" r="28" fill="#101722" stroke="#ff9f43" stroke-width="3"/>
    <text x="1252" y="472" text-anchor="middle" fill="#dce4ef" font-size="18" font-weight="700" font-family="Arial, Helvetica, sans-serif">Route</text>
  </g><path d="M1166 524 C1206 470 1210 470 1220 416" fill="none" stroke="#ff9f43" stroke-width="3" stroke-opacity="0.55"/>
</svg>