<svg xmlns="http://www.w3.org/2000/svg" width="1600" height="1000" viewBox="0 0 1600 1000">
  <defs>
    <radialGradient id="glow" cx="50%" cy="38%" r="65%">
      <stop offset="0%" stop-color="#66e879" stop-opacity="0.32"/>
      <stop offset="42%" stop-color="#66e879" stop-opacity="0.08"/>
      <stop offset="100%" stop-color="#07090f" stop-opacity="0"/>
    </radialGradient>
    <linearGradient id="panel" x1="0" y1="0" x2="1" y2="1">
      <stop offset="0%" stop-color="#17202b" stop-opacity="0.94"/>
      <stop offset="100%" stop-color="#0b0f17" stop-opacity="0.98"/>
    </linearGradient>
    <filter id="soft">
      <feGaussianBlur stdDeviation="18"/>
    </filter>
  </defs>
  <rect width="1600" height="1000" fill="#07090f"/>
  <rect width="1600" height="1000" fill="url(#glow)"/>
  <path d="M0 780 C320 640 550 880 860 750 C1180 610 1340 840 1600 700" fill="none" stroke="#66e879" stroke-opacity="0.28" stroke-width="2"/>
  <text x="92" y="82" fill="#66e879" font-size="22" font-weight="700" font-family="Arial, Helvetica, sans-serif">Agentix</text>
  <text x="92" y="148" fill="#f8fbff" font-size="54" font-weight="800" font-family="Arial, Helvetica, sans-serif">Billing Help Diagram</text>
  <text x="96" y="248" fill="#aab4c4" font-size="24" font-weight="500" font-family="Arial, Helvetica, sans-serif">Documentation and help visual reference.</text>
  <g>
    <rect x="760" y="160" width="680" height="620" rx="22" fill="url(#panel)" stroke="#66e879" stroke-opacity="0.38"/>
    <rect x="782" y="182" width="636" height="9" rx="5" fill="#66e879" opacity="0.72"/>
    <text x="788" y="222" fill="#e8edf7" font-size="22" font-weight="700" font-family="Arial, Helvetica, sans-serif">Billing Help Diagram</text>
  </g><rect x="792" y="248" width="190" height="420" rx="18" fill="#0b111a" stroke="#273142"/>
    <rect x="1010" y="248" width="390" height="140" rx="18" fill="#0d151f" stroke="#66e879" stroke-opacity="0.36"/>
    <rect x="1010" y="412" width="180" height="256" rx="18" fill="#0d151f" stroke="#273142"/>
    <rect x="1218" y="412" width="182" height="256" rx="18" fill="#0d151f" stroke="#273142"/><rect x="828" y="310" width="132" height="70" rx="14" fill="#66e879" opacity="0.16" stroke="#66e879" stroke-opacity="0.45"/>
      <text x="846" y="353" fill="#edf5ff" font-size="18" font-weight="700" font-family="Arial, Helvetica, sans-serif">Extract</text><rect x="1086" y="310" width="132" height="70" rx="14" fill="#66e879" opacity="0.2" stroke="#66e879" stroke-opacity="0.45"/>
      <text x="1104" y="353" fill="#edf5ff" font-size="18" font-weight="700" font-family="Arial, Helvetica, sans-serif">Risk</text><rect x="828" y="500" width="132" height="70" rx="14" fill="#66e879" opacity="0.24" stroke="#66e879" stroke-opacity="0.45"/>
      <text x="846" y="543" fill="#edf5ff" font-size="18" font-weight="700" font-family="Arial, Helvetica, sans-serif">Approve</text><rect x="1086" y="500" width="132" height="70" rx="14" fill="#66e879" opacity="0.28" stroke="#66e879" stroke-opacity="0.45"/>
      <text x="1104" y="543" fill="#edf5ff" font-size="18" font-weight="700" font-family="Arial, Helvetica, sans-serif">Sync</text><rect x="822" y="438" width="80" height="8" rx="4" fill="#728096" opacity="0.28"/><rect x="822" y="460" width="102" height="8" rx="4" fill="#728096" opacity="0.4"/><rect x="822" y="482" width="124" height="8" rx="4" fill="#728096" opacity="0.52"/><rect x="822" y="504" width="146" height="8" rx="4" fill="#728096" opacity="0.28"/><rect x="822" y="526" width="80" height="8" rx="4" fill="#728096" opacity="0.4"/><rect x="822" y="548" width="102" height="8" rx="4" fill="#728096" opacity="0.52"/><rect x="822" y="570" width="124" height="8" rx="4" fill="#728096" opacity="0.28"/><rect x="822" y="592" width="146" height="8" rx="4" fill="#728096" opacity="0.4"/><rect x="822" y="614" width="80" height="8" rx="4" fill="#728096" opacity="0.52"/><path d="M960 345 C1040 330 1030 480 1128 486 C1190 490 1208 540 1278 540" fill="none" stroke="#66e879" stroke-width="4" stroke-linecap="round" stroke-opacity="0.75"/>
    <circle cx="1278" cy="540" r="10" fill="#66e879"/>
</svg>